<?xml version="1.0" standalone="no"?>
<!DOCTYPE svg PUBLIC "-//W3C//DTD SVG 20010904//EN"
 "http://www.w3.org/TR/2001/REC-SVG-20010904/DTD/svg10.dtd">
<svg version="1.0" xmlns="http://www.w3.org/2000/svg"
 width="900.000000pt" height="900.000000pt" viewBox="0 0 900.000000 900.000000"
 preserveAspectRatio="xMidYMid meet">
<metadata>
Created by potrace 1.15, written by Peter Selinger 2001-2017
</metadata>
<g transform="translate(0.000000,900.000000) scale(0.100000,-0.100000)"
fill="#000000" stroke="none">
<path d="M5328 7281 c-114 -37 -187 -104 -214 -197 -14 -48 -15 -70 -6 -132 6
-41 8 -82 5 -91 -14 -45 -31 -63 -80 -87 -125 -62 -176 -122 -239 -284 -54
-141 -164 -467 -164 -488 0 -24 -28 -62 -46 -62 -10 0 -14 14 -14 58 l0 59
-167 6 c-91 4 -289 7 -438 7 -216 0 -275 -3 -284 -13 -11 -13 -66 -201 -117
-397 -16 -61 -27 -137 -31 -212 l-6 -118 359 0 c197 0 396 3 441 7 l83 6 21
56 c12 31 36 130 54 220 32 162 48 198 80 188 17 -6 17 -62 1 -118 -23 -75
-20 -104 12 -140 l27 -31 310 -13 c171 -8 367 -14 438 -15 70 0 127 -3 127 -7
0 -3 -103 -207 -230 -453 -126 -245 -230 -455 -230 -466 0 -10 -4 -25 -9 -33
-13 -20 -94 68 -132 145 -79 159 -15 305 211 479 44 34 69 62 78 87 26 68 24
69 -175 66 -123 -1 -195 2 -231 11 -44 11 -64 11 -115 0 -46 -9 -161 -12 -457
-10 -354 3 -397 1 -409 -13 -7 -9 -27 -16 -43 -16 -35 0 -61 -13 -106 -51 -18
-16 -39 -29 -47 -29 -20 0 -57 -38 -50 -50 8 -14 126 -10 131 4 7 18 309 21
359 3 l40 -14 -40 -14 c-31 -11 -93 -13 -280 -11 -192 3 -281 -1 -445 -18
-113 -12 -246 -24 -297 -27 -73 -5 -100 -11 -130 -29 l-38 -24 205 2 c148 2
220 -1 258 -11 29 -7 51 -15 49 -17 -15 -15 -626 -74 -765 -74 -66 0 -83 -3
-74 -12 16 -16 112 -21 402 -19 195 1 255 -2 298 -14 52 -16 53 -17 37 -35
-10 -11 -32 -24 -49 -30 -41 -13 -310 -39 -531 -50 -158 -8 -308 -31 -320 -49
-5 -10 318 -21 597 -21 178 0 208 -2 208 -15 0 -24 -36 -53 -72 -59 -18 -3
-96 -10 -173 -16 -77 -6 -266 -22 -420 -35 -154 -14 -319 -25 -368 -26 -86 -2
-118 -11 -74 -23 12 -3 248 -6 523 -6 411 0 503 -2 507 -13 6 -17 -24 -87 -44
-103 -9 -7 -67 -11 -159 -11 -80 0 -171 -6 -203 -12 -63 -14 -311 -33 -367
-29 -122 9 -299 1 -355 -16 -50 -15 -57 -20 -39 -26 12 -5 539 -10 1170 -12
l1149 -3 40 22 c22 12 52 25 67 28 24 6 27 4 30 -22 3 -24 7 -27 28 -24 14 2
293 3 620 1 554 -3 598 -2 630 15 19 10 39 24 43 31 4 8 23 21 42 28 19 8 45
24 57 36 12 11 40 26 61 32 34 10 41 10 52 -5 17 -24 33 -22 125 19 135 59
166 36 116 -86 -75 -184 -55 -279 80 -383 94 -72 122 -80 242 -74 164 8 288
60 409 171 52 48 74 77 101 136 l34 75 -7 109 c-6 99 -9 113 -34 145 -15 20
-30 44 -34 53 -3 9 -28 28 -54 42 -33 17 -42 25 -28 26 11 1 29 3 40 5 11 2
70 5 130 6 61 2 128 6 150 9 l40 5 -85 85 c-86 87 -135 118 -259 163 -46 16
-88 21 -234 25 l-178 4 16 24 c8 13 15 38 15 57 0 27 -132 397 -295 826 -14
36 -23 66 -22 68 2 1 36 7 76 13 40 6 82 15 94 21 64 33 97 92 99 174 2 58 -5
73 -35 84 -32 12 -163 -7 -207 -29 -41 -21 -90 -77 -90 -102 0 -25 -11 -28
-42 -12 -67 35 -167 11 -246 -57 -38 -34 -51 -35 -83 -10 -43 33 -104 59 -190
81 -109 28 -147 46 -164 81 -20 38 -19 74 6 209 28 152 23 238 -18 320 l-30
60 41 0 c23 0 55 9 72 19 30 18 41 37 97 163 30 68 63 91 137 98 l55 5 -33 20
c-21 13 -44 41 -62 75 -68 134 -169 176 -312 131z m-158 -1270 c0 -11 79 -41
109 -41 14 0 70 -15 125 -34 147 -50 170 -55 285 -60 111 -5 132 0 164 41 20
25 67 53 90 53 17 0 125 -345 163 -517 23 -106 23 -306 0 -393 -57 -218 -187
-362 -416 -461 -96 -41 -104 -54 -76 -135 17 -50 12 -74 -14 -74 -10 0 -34 -7
-53 -15 -29 -12 -87 -15 -286 -15 l-251 0 -16 25 c-9 14 -15 27 -13 30 3 2 54
-1 114 -7 108 -10 436 -5 468 8 23 9 21 50 -3 74 -14 14 -33 20 -68 20 -27 0
-57 6 -68 15 -10 8 -27 15 -36 15 -27 0 -30 17 -10 57 11 21 87 198 170 393
83 195 173 406 201 468 63 142 69 169 41 204 -11 15 -29 30 -39 33 -11 3 -143
27 -295 54 -151 26 -282 54 -291 61 -19 16 -19 44 1 74 13 22 14 30 1 80 -9
31 -11 56 -6 56 5 0 9 -4 9 -9z m1508 -1561 c50 -36 63 -59 64 -110 1 -87
-135 -220 -224 -220 -47 0 -103 23 -135 55 -30 30 -33 38 -33 94 0 107 25 141
134 187 77 33 144 31 194 -6z"/>
<path d="M6492 4397 c-29 -13 -62 -76 -62 -115 0 -46 29 -73 81 -79 83 -9 149
45 149 123 0 39 -4 47 -32 64 -36 22 -99 25 -136 7z"/>
<path d="M4560 5493 c-29 -11 -50 -36 -50 -59 0 -27 11 -35 59 -45 179 -36
186 -37 426 -32 146 3 245 10 253 16 7 6 20 24 28 39 13 24 13 32 2 45 -11 13
-42 14 -243 9 -193 -6 -244 -5 -315 9 -111 22 -142 26 -160 18z"/>
<path d="M3257 4253 c-4 -3 -7 -30 -7 -58 0 -40 9 -69 36 -124 30 -61 43 -76
87 -101 75 -44 150 -63 242 -64 124 0 221 27 307 83 101 66 208 198 208 257 0
11 -21 14 -110 14 l-111 0 -62 -52 c-81 -67 -137 -92 -195 -85 -53 6 -85 28
-132 90 l-35 47 -111 0 c-61 0 -114 -3 -117 -7z"/>
</g>
</svg>
