<?xml version="1.0" standalone="no"?>
<!DOCTYPE svg PUBLIC "-//W3C//DTD SVG 20010904//EN"
 "http://www.w3.org/TR/2001/REC-SVG-20010904/DTD/svg10.dtd">
<svg version="1.0" xmlns="http://www.w3.org/2000/svg"
 width="400.000000pt" height="98.000000pt" viewBox="0 0 400.000000 98.000000"
 preserveAspectRatio="xMidYMid meet">
<metadata>
Created by potrace 1.15, written by Peter Selinger 2001-2017
</metadata>
<g transform="translate(0.000000,98.000000) scale(0.100000,-0.100000)"
fill="#000000" stroke="none">
<path d="M1350 660 c-11 -11 -22 -31 -26 -45 -3 -14 -12 -25 -20 -25 -8 0 -14
-10 -14 -25 0 -16 6 -25 15 -25 12 0 15 -18 15 -105 l0 -105 30 0 30 0 0 105
0 105 30 0 c25 0 30 4 30 25 0 21 -5 25 -30 25 -20 0 -30 5 -30 15 0 15 6 18
50 19 28 1 41 33 18 47 -24 16 -77 10 -98 -11z"/>
<path d="M2180 625 c0 -51 -10 -69 -25 -45 -10 16 -70 12 -102 -7 -88 -50 -83
-191 7 -238 36 -19 79 -19 104 0 17 13 22 13 37 -1 30 -27 53 -10 45 34 -3 20
-6 99 -6 175 l0 137 -30 0 c-30 0 -30 -1 -30 -55z m-26 -106 c22 -17 26 -29
26 -68 0 -44 -3 -49 -34 -66 -33 -18 -34 -18 -65 4 -44 31 -46 91 -5 129 31
27 44 28 78 1z"/>
<path d="M2490 515 c0 -164 0 -165 25 -181 16 -11 34 -14 55 -9 26 6 31 11 28
33 -2 21 -8 27 -28 27 l-25 0 -3 148 -3 147 -24 0 -25 0 0 -165z"/>
<path d="M1505 571 c-91 -55 -87 -188 5 -236 85 -44 180 19 180 117 0 61 -22
100 -67 122 -44 21 -81 20 -118 -3z m98 -51 c47 -37 43 -102 -8 -136 -22 -14
-29 -15 -50 -4 -59 32 -67 89 -20 136 29 29 45 30 78 4z"/>
<path d="M1775 570 c-34 -23 -64 -74 -65 -113 0 -47 36 -105 76 -122 51 -21
84 -19 126 10 33 23 58 69 58 110 0 6 -5 27 -11 47 -20 75 -117 110 -184 68z
m118 -63 c17 -20 23 -73 9 -93 -9 -13 -54 -44 -63 -44 -4 0 -21 12 -38 26 -36
30 -41 76 -13 110 32 39 72 39 105 1z"/>
<path d="M2673 574 c-36 -15 -73 -76 -73 -119 0 -14 9 -44 20 -65 21 -42 69
-70 119 -70 31 0 86 32 100 58 8 16 6 21 -15 31 -32 14 -34 14 -34 -2 0 -8
-11 -20 -25 -27 -31 -17 -71 -5 -93 28 l-14 22 102 0 103 0 -7 41 c-9 56 -21
76 -59 99 -37 23 -79 24 -124 4z"/>
<path d="M2940 573 c-45 -28 -63 -61 -63 -120 0 -43 5 -59 24 -79 31 -34 71
-54 106 -54 33 0 87 31 102 58 8 16 6 21 -12 29 -19 9 -27 7 -46 -13 -31 -32
-61 -30 -96 6 l-29 30 103 0 104 0 -7 47 c-3 25 -14 55 -24 66 -42 46 -113 60
-162 30z"/>
</g>
</svg>
